<svg width="7" height="12" viewBox="0 0 7 12" fill="none" xmlns="http://www.w3.org/2000/svg">
<path d="M1.425 0.968293L6.33958 5.86829C6.39792 5.92663 6.43914 5.98982 6.46325 6.05788C6.48775 6.12593 6.5 6.19885 6.5 6.27663C6.5 6.3544 6.48775 6.42732 6.46325 6.49538C6.43914 6.56343 6.39792 6.62663 6.33958 6.68496L1.425 11.5995C1.28889 11.7357 1.11875 11.8037 0.914584 11.8037C0.710417 11.8037 0.535417 11.7308 0.389584 11.585C0.243751 11.4391 0.170834 11.269 0.170834 11.0745C0.170834 10.8801 0.243751 10.71 0.389584 10.5641L4.67708 6.27663L0.389584 1.98913C0.253473 1.85301 0.185417 1.6854 0.185417 1.48629C0.185417 1.28679 0.258334 1.11413 0.404167 0.968293C0.55 0.82246 0.720139 0.749543 0.914584 0.749543C1.10903 0.749543 1.27917 0.82246 1.425 0.968293Z" fill="#2E1F26"/>
</svg>
