<svg width="12" height="16" viewBox="0 0 12 16" fill="none" xmlns="http://www.w3.org/2000/svg">
<path d="M1.875 6.5C1.875 4.22188 3.72188 2.375 6 2.375C8.27812 2.375 10.125 4.22188 10.125 6.5C10.125 8.77812 8.27812 10.625 6 10.625C3.72188 10.625 1.875 8.77812 1.875 6.5Z" fill="#2E1F26"/>
<path fill-rule="evenodd" clip-rule="evenodd" d="M8.625 11.8966C10.623 10.9227 12 8.87225 12 6.5C12 3.18613 9.31388 0.5 6 0.5C2.6865 0.5 0 3.18613 0 6.5C0 8.87263 1.377 10.9235 3.37537 11.897V15.125C3.37536 15.1929 3.39379 15.2595 3.42867 15.3178C3.46356 15.376 3.5136 15.4237 3.57346 15.4557C3.63332 15.4877 3.70076 15.5029 3.76857 15.4996C3.83638 15.4963 3.90202 15.4747 3.9585 15.437L6 14.0758L8.04187 15.437C8.09835 15.4747 8.16399 15.4963 8.23181 15.4996C8.29962 15.5029 8.36705 15.4877 8.42691 15.4557C8.48677 15.4237 8.53682 15.376 8.5717 15.3178C8.60659 15.2595 8.62501 15.1929 8.625 15.125V11.8966ZM6 11.75C8.8995 11.75 11.25 9.3995 11.25 6.5C11.25 3.6005 8.8995 1.25 6 1.25C3.1005 1.25 0.75 3.6005 0.75 6.5C0.75 9.3995 3.1005 11.75 6 11.75Z" fill="#2E1F26"/>
</svg>
