<svg width="18" height="18" viewBox="0 0 18 18" fill="none" xmlns="http://www.w3.org/2000/svg">
<path d="M18 3.375V4.5H7.3125V12.9375H10.7752C11.0261 11.9706 11.8958 11.25 12.9375 11.25C13.9792 11.25 14.8489 11.9706 15.0998 12.9375H15.75V10.125H16.875V14.0625H15.0998C14.8489 15.0294 13.9792 15.75 12.9375 15.75C11.8958 15.75 11.0261 15.0294 10.7752 14.0625H6.09975C5.84888 15.0294 4.97925 15.75 3.9375 15.75C2.89575 15.75 2.02612 15.0294 1.77525 14.0625H0V9.47475L0.0354366 9.38644L1.16044 6.01144L1.2825 5.625H6.1875V3.375H18ZM17.4375 5.625V6.75H12.375V5.625H17.4375ZM6.1875 6.75H2.09194L1.125 9.63281V12.9375H1.77525C2.02612 11.9706 2.89575 11.25 3.9375 11.25C4.97925 11.25 5.84888 11.9706 6.09975 12.9375H6.1875V6.75ZM16.875 7.875V9H13.5V7.875H16.875ZM12.9375 12.375C12.3092 12.375 11.8125 12.8717 11.8125 13.5C11.8125 14.1283 12.3092 14.625 12.9375 14.625C13.5658 14.625 14.0625 14.1283 14.0625 13.5C14.0625 12.8717 13.5658 12.375 12.9375 12.375ZM3.9375 12.375C3.30919 12.375 2.8125 12.8717 2.8125 13.5C2.8125 14.1283 3.30919 14.625 3.9375 14.625C4.56581 14.625 5.0625 14.1283 5.0625 13.5C5.0625 12.8717 4.56581 12.375 3.9375 12.375Z" fill="#5C5959"/>
</svg>
