<svg width="10" height="10" viewBox="0 0 10 10" fill="none" xmlns="http://www.w3.org/2000/svg">
<path d="M1.5 8.21851H2.2L6.5125 3.90601L5.8125 3.20601L1.5 7.51851V8.21851ZM8.65 3.18101L6.525 1.08101L7.225 0.381006C7.41667 0.189339 7.65217 0.0935059 7.9315 0.0935059C8.2105 0.0935059 8.44583 0.189339 8.6375 0.381006L9.3375 1.08101C9.52917 1.27267 9.62917 1.50401 9.6375 1.77501C9.64583 2.04567 9.55417 2.27684 9.3625 2.46851L8.65 3.18101ZM1 9.21851C0.858333 9.21851 0.739667 9.17051 0.644 9.07451C0.548 8.97884 0.5 8.86017 0.5 8.71851V7.30601C0.5 7.23934 0.5125 7.17484 0.5375 7.11251C0.5625 7.04984 0.6 6.99351 0.65 6.94351L5.8 1.79351L7.925 3.91851L2.775 9.06851C2.725 9.11851 2.66883 9.15601 2.6065 9.18101C2.54383 9.20601 2.47917 9.21851 2.4125 9.21851H1ZM6.1625 3.55601L5.8125 3.20601L6.5125 3.90601L6.1625 3.55601Z" fill="#2E1F26"/>
</svg>
