<svg width="12" height="16" viewBox="0 0 12 16" fill="none" xmlns="http://www.w3.org/2000/svg">
<path d="M6 8.75C6.2125 8.75 6.39075 8.678 6.53475 8.534C6.67825 8.3905 6.75 8.2125 6.75 8V5.75C6.75 5.5375 6.67825 5.35925 6.53475 5.21525C6.39075 5.07175 6.2125 5 6 5C5.7875 5 5.6095 5.07175 5.466 5.21525C5.322 5.35925 5.25 5.5375 5.25 5.75V8C5.25 8.2125 5.322 8.3905 5.466 8.534C5.6095 8.678 5.7875 8.75 6 8.75ZM6 11C6.2125 11 6.39075 10.928 6.53475 10.784C6.67825 10.6405 6.75 10.4625 6.75 10.25C6.75 10.0375 6.67825 9.85925 6.53475 9.71525C6.39075 9.57175 6.2125 9.5 6 9.5C5.7875 9.5 5.6095 9.57175 5.466 9.71525C5.322 9.85925 5.25 10.0375 5.25 10.25C5.25 10.4625 5.322 10.6405 5.466 10.784C5.6095 10.928 5.7875 11 6 11ZM0.75 13.25C0.5375 13.25 0.35925 13.178 0.21525 13.034C0.0717501 12.8905 0 12.7125 0 12.5C0 12.2875 0.0717501 12.1095 0.21525 11.966C0.35925 11.822 0.5375 11.75 0.75 11.75H1.5V6.5C1.5 5.4625 1.8125 4.5405 2.4375 3.734C3.0625 2.928 3.875 2.4 4.875 2.15V1.625C4.875 1.3125 4.9845 1.047 5.2035 0.8285C5.422 0.6095 5.6875 0.5 6 0.5C6.3125 0.5 6.578 0.6095 6.7965 0.8285C7.0155 1.047 7.125 1.3125 7.125 1.625V2.15C8.125 2.4 8.9375 2.928 9.5625 3.734C10.1875 4.5405 10.5 5.4625 10.5 6.5V11.75H11.25C11.4625 11.75 11.6405 11.822 11.784 11.966C11.928 12.1095 12 12.2875 12 12.5C12 12.7125 11.928 12.8905 11.784 13.034C11.6405 13.178 11.4625 13.25 11.25 13.25H0.75ZM6 15.5C5.5875 15.5 5.2345 15.3533 4.941 15.0597C4.647 14.7657 4.5 14.4125 4.5 14H7.5C7.5 14.4125 7.35325 14.7657 7.05975 15.0597C6.76575 15.3533 6.4125 15.5 6 15.5Z" fill="#2E1F26"/>
</svg>
