<svg width="12" height="8" viewBox="0 0 12 8" fill="none" xmlns="http://www.w3.org/2000/svg">
<path d="M4.49999 5.39961L9.39999 0.499609C9.58332 0.316276 9.81665 0.224609 10.1 0.224609C10.3833 0.224609 10.6167 0.316276 10.8 0.499609C10.9833 0.682942 11.075 0.916276 11.075 1.19961C11.075 1.48294 10.9833 1.71628 10.8 1.89961L5.19999 7.49961C4.99999 7.69961 4.76665 7.79961 4.49999 7.79961C4.23332 7.79961 3.99999 7.69961 3.79999 7.49961L1.19999 4.89961C1.01665 4.71628 0.924988 4.48294 0.924988 4.19961C0.924988 3.91628 1.01665 3.68294 1.19999 3.49961C1.38332 3.31628 1.61665 3.22461 1.89999 3.22461C2.18332 3.22461 2.41665 3.31628 2.59999 3.49961L4.49999 5.39961Z" fill="white"/>
</svg>
