<svg width="14" height="16" viewBox="0 0 14 16" fill="none" xmlns="http://www.w3.org/2000/svg">
<path d="M12.3333 6.00004L11.0033 13.564C10.9491 13.873 10.7877 14.1528 10.5475 14.3545C10.3072 14.5562 10.0036 14.6667 9.69 14.6667H4.31C3.99636 14.6667 3.69275 14.5562 3.45255 14.3545C3.21235 14.1528 3.05093 13.873 2.99667 13.564L1.66667 6.00004M13 4.00004H9.25M9.25 4.00004V2.66671C9.25 2.31309 9.10952 1.97395 8.85948 1.7239C8.60943 1.47385 8.27029 1.33337 7.91667 1.33337H6.08333C5.72971 1.33337 5.39057 1.47385 5.14052 1.7239C4.89048 1.97395 4.75 2.31309 4.75 2.66671V4.00004M9.25 4.00004H4.75M1 4.00004H4.75" stroke="#5C5959" stroke-linecap="round" stroke-linejoin="round"/>
</svg>
