<svg width="22" height="18" viewBox="0 0 22 18" fill="none" xmlns="http://www.w3.org/2000/svg">
<path d="M7.0418 18H4.2168V6.4L2.3918 2H0.216797V0H3.7418L5.3918 4H21.7918L18.2168 11.025C19.0668 11.1583 19.7795 11.55 20.3548 12.2C20.9295 12.85 21.2168 13.6167 21.2168 14.5C21.2168 15.4667 20.8795 16.2917 20.2048 16.975C19.5295 17.6583 18.7085 18 17.7418 18C16.7585 18 15.9295 17.6583 15.2548 16.975C14.5795 16.2917 14.2418 15.4667 14.2418 14.5C14.2418 14.1667 14.2835 13.8583 14.3668 13.575C14.4501 13.2917 14.5668 13.0167 14.7168 12.75L11.4418 12.45L7.0418 18ZM16.0668 10.875L18.5418 6L6.2168 6.025L7.9418 10.125L16.0668 10.875ZM6.2168 10.7V15.975L9.1918 12.25L6.7668 12.025L6.2168 10.7ZM17.7168 16C18.1501 16 18.5085 15.854 18.7918 15.562C19.0751 15.2707 19.2168 14.9167 19.2168 14.5C19.2168 14.0667 19.0751 13.7083 18.7918 13.425C18.5085 13.1417 18.1501 13 17.7168 13C17.3001 13 16.9461 13.1417 16.6548 13.425C16.3628 13.7083 16.2168 14.0667 16.2168 14.5C16.2168 14.9167 16.3628 15.2707 16.6548 15.562C16.9461 15.854 17.3001 16 17.7168 16Z" fill="white"/>
</svg>
