<svg width="12" height="8" viewBox="0 0 12 8" fill="none" xmlns="http://www.w3.org/2000/svg">
<path d="M4.5 5.39961L9.4 0.499609C9.58334 0.316276 9.81667 0.224609 10.1 0.224609C10.3833 0.224609 10.6167 0.316276 10.8 0.499609C10.9833 0.682942 11.075 0.916276 11.075 1.19961C11.075 1.48294 10.9833 1.71628 10.8 1.89961L5.2 7.49961C5 7.69961 4.76667 7.79961 4.5 7.79961C4.23334 7.79961 4 7.69961 3.8 7.49961L1.2 4.89961C1.01667 4.71628 0.925003 4.48294 0.925003 4.19961C0.925003 3.91628 1.01667 3.68294 1.2 3.49961C1.38334 3.31628 1.61667 3.22461 1.9 3.22461C2.18334 3.22461 2.41667 3.31628 2.6 3.49961L4.5 5.39961Z" fill="black"/>
</svg>
