<svg width="20" height="20" viewBox="0 0 20 20" fill="none" xmlns="http://www.w3.org/2000/svg">
<g clip-path="url(#clip0_13_508)">
<path d="M21.2833 5.2453C20.5472 5.57991 19.7537 5.79979 18.9315 5.90495C19.7728 5.39826 20.4229 4.5952 20.7288 3.62962C19.9354 4.10763 19.0558 4.44224 18.1285 4.63344C17.3732 3.81126 16.312 3.33325 15.1074 3.33325C12.8608 3.33325 11.0252 5.16882 11.0252 7.43459C11.0252 7.75964 11.0635 8.07513 11.1304 8.37149C7.72694 8.19941 4.69634 6.56461 2.67913 4.08851C2.32541 4.6908 2.12464 5.39826 2.12464 6.14396C2.12464 7.56843 2.84166 8.83038 3.95064 9.5474C3.27187 9.5474 2.64089 9.3562 2.0864 9.06939V9.09807C2.0864 11.0866 3.50131 12.7501 5.37512 13.1229C4.77352 13.2876 4.14194 13.3105 3.52999 13.1898C3.78966 14.0048 4.29819 14.718 4.98412 15.229C5.67005 15.74 6.49887 16.0232 7.35409 16.0388C5.9044 17.1864 4.10743 17.8068 2.25848 17.7979C1.93344 17.7979 1.60839 17.7788 1.28334 17.7405C3.09978 18.9069 5.2604 19.5856 7.57397 19.5856C15.1074 19.5856 19.247 13.3333 19.247 7.9126C19.247 7.73096 19.247 7.55887 19.2375 7.37723C20.0405 6.80362 20.7288 6.07704 21.2833 5.2453Z" fill="white"/>
</g>
<defs>
<clipPath id="clip0_13_508">
<rect width="20" height="20" fill="white"/>
</clipPath>
</defs>
</svg>
